<mxfile host="Electron" modified="2025-01-31T07:17:01.295Z" agent="Mozilla/5.0 (Windows NT 10.0; Win64; x64) AppleWebKit/537.36 (KHTML, like Gecko) draw.io/24.2.5 Chrome/120.0.6099.109 Electron/28.1.0 Safari/537.36" etag="fGQn4k22ogsqURf7Mg-g" version="24.2.5" type="device">
  <diagram id="6a731a19-8d31-9384-78a2-239565b7b9f0" name="Page-1">
    <mxGraphModel dx="1180" dy="2153" grid="1" gridSize="10" guides="1" tooltips="1" connect="1" arrows="1" fold="1" page="1" pageScale="1" pageWidth="1169" pageHeight="827" background="none" math="0" shadow="0">
      <root>
        <mxCell id="0" />
        <mxCell id="1" parent="0" />
        <mxCell id="1sPqhd5n4Br7Ap4RMf6g-1784" style="edgeStyle=orthogonalEdgeStyle;rounded=0;orthogonalLoop=1;jettySize=auto;html=1;entryX=1;entryY=0.5;entryDx=0;entryDy=0;curved=1;" edge="1" parent="1" source="1sPqhd5n4Br7Ap4RMf6g-1779" target="1sPqhd5n4Br7Ap4RMf6g-1782">
          <mxGeometry relative="1" as="geometry" />
        </mxCell>
        <mxCell id="1sPqhd5n4Br7Ap4RMf6g-1785" style="edgeStyle=orthogonalEdgeStyle;rounded=0;orthogonalLoop=1;jettySize=auto;html=1;entryX=0;entryY=0.5;entryDx=0;entryDy=0;curved=1;" edge="1" parent="1" source="1sPqhd5n4Br7Ap4RMf6g-1779" target="1sPqhd5n4Br7Ap4RMf6g-1783">
          <mxGeometry relative="1" as="geometry" />
        </mxCell>
        <mxCell id="1sPqhd5n4Br7Ap4RMf6g-1779" value="Внедрение системы" style="rounded=1;whiteSpace=wrap;html=1;fillColor=#dae8fc;strokeColor=#6c8ebf;" vertex="1" parent="1">
          <mxGeometry x="480" y="120" width="200" height="80" as="geometry" />
        </mxCell>
        <mxCell id="1sPqhd5n4Br7Ap4RMf6g-1790" style="edgeStyle=orthogonalEdgeStyle;rounded=0;orthogonalLoop=1;jettySize=auto;html=1;entryX=0.5;entryY=0;entryDx=0;entryDy=0;curved=1;" edge="1" parent="1" source="1sPqhd5n4Br7Ap4RMf6g-1782" target="1sPqhd5n4Br7Ap4RMf6g-1786">
          <mxGeometry relative="1" as="geometry" />
        </mxCell>
        <mxCell id="1sPqhd5n4Br7Ap4RMf6g-1791" style="edgeStyle=orthogonalEdgeStyle;rounded=0;orthogonalLoop=1;jettySize=auto;html=1;exitX=0.5;exitY=1;exitDx=0;exitDy=0;entryX=0.5;entryY=0;entryDx=0;entryDy=0;curved=1;" edge="1" parent="1" source="1sPqhd5n4Br7Ap4RMf6g-1782" target="1sPqhd5n4Br7Ap4RMf6g-1787">
          <mxGeometry relative="1" as="geometry" />
        </mxCell>
        <mxCell id="1sPqhd5n4Br7Ap4RMf6g-1782" value="Повышение эффективности работы" style="rounded=1;whiteSpace=wrap;html=1;fillColor=#ffe6cc;strokeColor=#d79b00;" vertex="1" parent="1">
          <mxGeometry x="240" y="200" width="200" height="80" as="geometry" />
        </mxCell>
        <mxCell id="1sPqhd5n4Br7Ap4RMf6g-1792" style="edgeStyle=orthogonalEdgeStyle;rounded=0;orthogonalLoop=1;jettySize=auto;html=1;entryX=0.5;entryY=0;entryDx=0;entryDy=0;curved=1;" edge="1" parent="1" source="1sPqhd5n4Br7Ap4RMf6g-1783" target="1sPqhd5n4Br7Ap4RMf6g-1788">
          <mxGeometry relative="1" as="geometry" />
        </mxCell>
        <mxCell id="1sPqhd5n4Br7Ap4RMf6g-1793" style="edgeStyle=orthogonalEdgeStyle;rounded=0;orthogonalLoop=1;jettySize=auto;html=1;exitX=0.5;exitY=1;exitDx=0;exitDy=0;entryX=0.5;entryY=0;entryDx=0;entryDy=0;curved=1;" edge="1" parent="1" source="1sPqhd5n4Br7Ap4RMf6g-1783" target="1sPqhd5n4Br7Ap4RMf6g-1789">
          <mxGeometry relative="1" as="geometry" />
        </mxCell>
        <mxCell id="1sPqhd5n4Br7Ap4RMf6g-1795" style="edgeStyle=orthogonalEdgeStyle;rounded=0;orthogonalLoop=1;jettySize=auto;html=1;entryX=0.5;entryY=0;entryDx=0;entryDy=0;curved=1;" edge="1" parent="1" source="1sPqhd5n4Br7Ap4RMf6g-1783" target="1sPqhd5n4Br7Ap4RMf6g-1794">
          <mxGeometry relative="1" as="geometry" />
        </mxCell>
        <mxCell id="1sPqhd5n4Br7Ap4RMf6g-1783" value="Обеспечение стабильности и надежности системы" style="rounded=1;whiteSpace=wrap;html=1;fillColor=#ffe6cc;strokeColor=#d79b00;" vertex="1" parent="1">
          <mxGeometry x="720" y="200" width="200" height="80" as="geometry" />
        </mxCell>
        <mxCell id="1sPqhd5n4Br7Ap4RMf6g-1786" value="Быстрый поиск нужных данных" style="rounded=1;whiteSpace=wrap;html=1;fillColor=#d5e8d4;strokeColor=#82b366;" vertex="1" parent="1">
          <mxGeometry x="120" y="320" width="200" height="80" as="geometry" />
        </mxCell>
        <mxCell id="1sPqhd5n4Br7Ap4RMf6g-1787" value="Генерация документов" style="rounded=1;whiteSpace=wrap;html=1;fillColor=#d5e8d4;strokeColor=#82b366;" vertex="1" parent="1">
          <mxGeometry x="360" y="320" width="200" height="80" as="geometry" />
        </mxCell>
        <mxCell id="1sPqhd5n4Br7Ap4RMf6g-1788" value="Поддержка работы в пиковые периоды" style="rounded=1;whiteSpace=wrap;html=1;fillColor=#d5e8d4;strokeColor=#82b366;" vertex="1" parent="1">
          <mxGeometry x="600" y="320" width="200" height="80" as="geometry" />
        </mxCell>
        <mxCell id="1sPqhd5n4Br7Ap4RMf6g-1789" value="Автоматическое резервирование данных" style="rounded=1;whiteSpace=wrap;html=1;fillColor=#d5e8d4;strokeColor=#82b366;" vertex="1" parent="1">
          <mxGeometry x="840" y="320" width="200" height="80" as="geometry" />
        </mxCell>
        <mxCell id="1sPqhd5n4Br7Ap4RMf6g-1794" value="Мониторинг производительности" style="rounded=1;whiteSpace=wrap;html=1;fillColor=#d5e8d4;strokeColor=#82b366;" vertex="1" parent="1">
          <mxGeometry x="720" y="440" width="200" height="80" as="geometry" />
        </mxCell>
      </root>
    </mxGraphModel>
  </diagram>
</mxfile>
